M48
;Layer_Color=9474304
;FILE_FORMAT=2:5
INCH,LZ
;TYPE=PLATED
T4F00S00C0.01000
T5F00S00C0.01200
T6F00S00C0.03386
%
T04
X0059Y00355
X00819Y00344
X00962Y00338
X01106Y00293
X01179Y00446
X01129Y00528
X0136543Y0049043
X0136243Y0070243
X01252Y00753
X01147Y00772
X011218Y008858
X01162Y00902
X0119857Y0088157
X01112Y00973
X01015Y00915
X00908Y00876
X0091Y01277
X0118Y00582
X0077Y0081
X00642Y00708
X00559Y00779
X00784Y01189
T05
X003Y0005937
X00345
X0039
X00467Y0007637
X00519
X00577
X006515Y000215
X007515
X00807Y00293
X00685Y00295
X00703Y00364
X006765Y00456
X00817Y00453
X00539Y00362
X0057Y00295
X00421Y00303
X00375Y00325
Y0037
Y0028
X00352Y00465
X00351Y0052
X00415Y0055
X0044957Y0042543
X00115Y0046
Y0051
X0005
Y0046
X00077Y00396
X00041Y00377
X0004Y00328
X00076Y003
X00114Y00326
Y00377
X00863Y00373
X00952Y00256
X0095263Y00211
X0095326Y00166
X01034Y00179
X01104Y00232
X011115Y003555
X01209Y00284
X01306Y00366
X01373Y00377
X01374Y00448
X00984Y00049
X008515Y000215
X0096Y00573
X00956Y00724
X01028Y0073
X00912Y0077
X00865Y00977
X00867Y01055
X0086443Y0112543
X00962Y011
X00959Y01011
X01147Y00998
X01359Y00988
Y00928
X01357Y00873
Y00817
X01402Y00695
X01395Y0062
X01223Y00573
X01118Y0066
X01131Y01231
X01117Y01277
X01123Y01337
X01198Y01233
X012315Y01227
X01313Y01129
X01353Y0106
X0101Y0141
X0096Y0141
X00968Y01459
X01049Y01458
X00887Y0146
X0091Y01422
X00776Y01421
X00774Y01356
Y01302
X0072
X00666
X00674Y01421
X00674Y01462
X00725
X00806Y01461
X00593Y01463
X00568Y01421
X00512Y01464
X00432
X00463Y01421
X0035
X00351Y01465
X00331Y0125
X00317Y01182
X00373Y0116
X00351Y01075
X00414Y0109
X0028791Y0109391
X0020425Y0101575
X00085Y01045
X00102Y01122
X0004772Y0111128
Y0116128
Y0121128
X000385Y009765
X0023Y00865
X00295
X00264Y00829
X0029542Y00788
X0023142Y00788
X00248Y00728
X00197Y00714
X00351Y00633
X0035Y0058
X0047406Y0065906
X0044457Y0071457
X00584Y00733
X00576Y00669
X00673Y0065
X00675Y00781
X00733Y00792
X00765Y0077
X00797Y00693
X00655Y00845
X0069642Y0108858
X00115Y0056
X0005
T06
X006525Y001025
Y002025
X007525
Y001025
X008525
Y002025
M30
