M48
;Layer_Color=9474304
;FILE_FORMAT=4:4
METRIC,LZ
;TYPE=PLATED
T3F00S00C0.2540
T4F00S00C0.3048
T5F00S00C0.8600
%
T03
X0009906Y00128905
X00165481Y0013335
X00179578Y0011049
X0017126Y00090488
X00150368Y00091694
X00141415Y0009236
X00197358Y00083566
X0021317Y00090488
X0022117Y00110348
X00229235Y0013081
X0022225Y00137795
X00240538Y00084074
X0025254Y0009044
X0027178Y001016
X0030226Y0011176
X0032512
X0034798
X0033655Y00127
X0031369
X0028702Y0006731
X0026797Y0014605
X0025908Y0014732
X0027787Y0021362
X0031623Y00203962
X0035052Y0020447
X0034798Y0023622
Y0027813
X0032512
X0030226
X0031369Y0029337
X0033655
X00274955Y00304165
X00267335Y00338709
X00246632Y0032004
X0021971Y003175
X0021844Y0029464
X0024537Y00239014
X002159Y0019304
X0035052Y0014732
X00244983Y00363347
X0019685Y003175
X001873Y00278155
X0016002Y0024257
X0016637Y00213106
X001778
X0018923
X0020066
X0019558Y0014986
X002032Y0014478
X00165434Y0014232
X0009652Y00141605
X0008509Y00169291
X00019812Y00154305
Y00141605
X0006185Y00237364
X0005334Y0028448
X001143Y0029464
X0011176Y0030861
X0009652Y0032258
Y0034544
Y003683
X0008128Y0035687
Y0033401
X0013197Y00207535
T04
X0001524Y0009144
Y0011684
X00049564Y00124841
X0006582Y00124841
X0005784Y00135255
X00098425Y00116205
X0011303Y00070866
Y00056642
Y00042418
Y00026035
X001651Y0001016
X001905
X00205105Y0013335
X00070802Y00070167
X0003048Y0007874
X0023114Y0011176
X0024257Y0004699
X0026543Y000381
X002935Y00157561
X00287655Y0024638
X002667Y00271145
X0025654
X0026543Y0030099
X00273812Y00315342
X0022352Y0024257
X0020828
X001773Y00276499
X00124206Y00268015
X001053Y0027724
X0010414Y0025146
X0009144Y0023495
X0004191Y0024765
X000412Y0026784
X00020066Y00266572
X0001524Y0028702
X0003048Y0030226
X00019736Y0019431
X0001016Y001651
X00049564Y00146255
X0006582Y00146255
X0012192Y0016764
X00163068Y00152654
X0018542Y0017724
X002025
X0015621Y0033909
X0013843
T05
X00165735Y00026035
X00191135
Y00051435
X00165735
X00216535
Y00026035
M30
