M48
;Layer_Color=9474304
;FILE_FORMAT=4:4
METRIC,LZ
;TYPE=PLATED
T3F00S00C0.2540
T4F00S00C0.3048
T5F00S00C0.4064
T6F00S00C0.8600
%
T03
X0009906Y00128905
X0016383Y0013335
X00179578Y0011049
X0018923Y0007239
X0021463
X0014478Y0009271
X0022117Y00110348
X0022225Y00137795
X00229235Y0013081
X0026924Y001016
X0030226Y0011176
X0032512
X0034798
X0033655Y00127
X0031369
X0024003Y0006223
X0022098Y0014732
X0025908
X0026797Y0014605
X0027787Y0021108
X0031623Y00203962
X0035052Y0020447
X0034798Y0023622
Y0027813
X0032512
X0030226
X0031369Y0029337
X0033655
X00274955Y00304165
X00267335Y00338709
X00246632Y0032004
X0021971Y003175
X0021844Y0029464
X0024537Y00239014
X00244983Y00363347
X0035052Y0014732
X0019558Y0014986
X00165434Y0014232
X0009652Y00141605
X0008509Y00164465
X00019812Y00154305
Y00141605
X0006185Y00237364
X0005334Y0028448
X001143Y0029464
X0011176Y0030861
X0009652Y0032258
Y0034544
Y003683
X0008128Y0035687
Y0033401
X0019685Y003175
X001873Y00278155
X0016002Y0024257
X0016637Y00213106
X001778
X0018923
X0020066
X00213918Y00197825
X0013197Y00207535
T04
X0007874Y0001016
Y0003937
X000635Y0006477
X0003048Y0007874
X0001524Y0009144
Y0011684
X00049564Y00124841
X0006582Y00124841
X0005784Y00135255
X0010668Y0011557
X0010922Y001016
X0009906Y0010668
X0014097Y0004699
X0014605Y0001016
X001651
X001905
X0011176
X00205105Y0013335
X0023114Y0011176
X0024765Y0001778
X0026416
X0028067
X002935Y00157561
X0031692Y0022225
X002667Y00271145
X0025654
X0026543Y0030099
X00273812Y00315342
X0022352Y0024257
X0020828
X001773Y00276499
X00124206Y00268015
X001053Y0027724
X0010414Y0025146
X001143Y0021082
Y0019558
X0012192Y0016764
X00163068Y00152654
X0018542Y0017724
X002025
X0006582Y00146255
X00049564Y00146255
X0001016Y001651
X000127Y0020828
X00020066Y00266572
X000412Y0026784
X0004191Y0024765
X0003048Y0030226
X0001524Y0028702
X0013843Y0033909
X0015621
T05
X00019736Y0019431
T06
X00165735Y00026035
Y00051435
X00191135
Y00026035
X00216535
Y00051435
M30
